ffmpeg version 2.7 Copyright (c) 2000-2015 the FFmpeg developers
  built with gcc 4.9.2 (GCC) 20150304 (prerelease)
  configuration: --prefix=/usr --disable-debug --disable-static --disable-stripping --enable-avisynth --enable-avresample --enable-fontconfig --enable-gnutls --enable-gpl --enable-libass --enable-libbluray --enable-libfreetype --enable-libfribidi --enable-libgsm --enable-libmodplug --enable-libmp3lame --enable-libopencore_amrnb --enable-libopencore_amrwb --enable-libopenjpeg --enable-libopus --enable-librtmp --enable-libschroedinger --enable-libspeex --enable-libtheora --enable-libv4l2 --enable-libvorbis --enable-libvpx --enable-libx264 --enable-libx265 --enable-libxvid --enable-runtime-cpudetect --enable-shared --enable-swresample --enable-version3 --enable-libfdk_aac --enable-nonfree
  libavutil      54. 27.100 / 54. 27.100
  libavcodec     56. 41.100 / 56. 41.100
  libavformat    56. 36.100 / 56. 36.100
  libavdevice    56.  4.100 / 56.  4.100
  libavfilter     5. 16.101 /  5. 16.101
  libavresample   2.  1.  0 /  2.  1.  0
  libswscale      3.  1.101 /  3.  1.101
  libswresample   1.  2.100 /  1.  2.100
  libpostproc    53.  3.100 / 53.  3.100
Input #0, mov,mp4,m4a,3gp,3g2,mj2, from '/usr/share/webapps/pimcore/website/var/assets/videos/home-trailer-english.mp4':
  Metadata:
    major_brand     : mp42
    minor_version   : 0
    compatible_brands: isommp42
    creation_time   : 2013-12-15 02:24:28
  Duration: 00:02:27.01, start: 0.000000, bitrate: 1937 kb/s
    Stream #0:0(und): Video: h264 (High) (avc1 / 0x31637661), yuv420p, 1280x720, 1743 kb/s, 24 fps, 24 tbr, 48 tbn, 48 tbc (default)
    Metadata:
      handler_name    : VideoHandler
    Stream #0:1(und): Audio: aac (LC) (mp4a / 0x6134706D), 44100 Hz, stereo, fltp, 191 kb/s (default)
    Metadata:
      creation_time   : 2013-12-15 02:24:28
      handler_name    : IsoMedia File Produced by Google, 5-11-2011
[libvpx @ 0x7f54a8e96e20] v1.4.0
Output #0, webm, to '/usr/share/webapps/pimcore/website/var/tmp/video-thumbnails/0/27/thumb__content/home-trailer-english.webm':
  Metadata:
    major_brand     : mp42
    minor_version   : 0
    compatible_brands: isommp42
    encoder         : Lavf56.36.100
    Stream #0:0(und): Video: vp8 (libvpx), yuv420p, 870x488, q=-1--1, 450 kb/s, 24 fps, 1k tbn, 24 tbc (default)
    Metadata:
      handler_name    : VideoHandler
      encoder         : Lavc56.41.100 libvpx
    Stream #0:1(und): Audio: vorbis (libvorbis), 44000 Hz, stereo, fltp, 128 kb/s (default)
    Metadata:
      creation_time   : 2013-12-15 02:24:28
      handler_name    : IsoMedia File Produced by Google, 5-11-2011
      encoder         : Lavc56.41.100 libvorbis
Stream mapping:
  Stream #0:0 -> #0:0 (h264 (native) -> vp8 (libvpx))
  Stream #0:1 -> #0:1 (aac (native) -> vorbis (libvorbis))
Press [q] to stop, [?] for help
frame=   13 fps=0.0 q=0.0 size=       5kB time=00:00:00.54 bitrate=  70.2kbits/s    frame=   29 fps= 29 q=0.0 size=      73kB time=00:00:01.20 bitrate= 494.2kbits/s    frame=   40 fps= 26 q=0.0 size=     105kB time=00:00:01.66 bitrate= 517.4kbits/s    frame=   51 fps= 25 q=0.0 size=     142kB time=00:00:02.12 bitrate= 545.9kbits/s    frame=   60 fps= 22 q=0.0 size=     144kB time=00:00:02.50 bitrate= 471.9kbits/s    frame=   68 fps= 19 q=0.0 size=     174kB time=00:00:02.83 bitrate= 503.7kbits/s    frame=   76 fps= 19 q=0.0 size=     205kB time=00:00:03.16 bitrate= 530.7kbits/s    frame=   82 fps= 18 q=0.0 size=     205kB time=00:00:03.41 bitrate= 491.9kbits/s    frame=   89 fps= 17 q=0.0 size=     236kB time=00:00:03.70 bitrate= 521.2kbits/s    frame=   97 fps= 17 q=0.0 size=     266kB time=00:00:04.04 bitrate= 538.3kbits/s    frame=  104 fps= 16 q=0.0 size=     266kB time=00:00:04.33 bitrate= 502.1kbits/s    frame=  115 fps= 17 q=0.0 size=     308kB time=00:00:04.79 bitrate= 527.4kbits/s    frame=  122 fps= 16 q=0.0 size=     336kB time=00:00:05.08 bitrate= 541.8kbits/s    frame=  127 fps= 16 q=0.0 size=     336kB time=00:00:05.29 bitrate= 520.4kbits/s    frame=  134 fps= 16 q=0.0 size=     366kB time=00:00:05.58 bitrate= 536.5kbits/s    frame=  139 fps= 15 q=0.0 size=     366kB time=00:00:05.79 bitrate= 517.1kbits/s    frame=  148 fps= 15 q=0.0 size=     399kB time=00:00:06.16 bitrate= 529.7kbits/s    frame=  154 fps= 15 q=0.0 size=     399kB time=00:00:06.41 bitrate= 509.1kbits/s    frame=  160 fps= 15 q=0.0 size=     430kB time=00:00:06.66 bitrate= 528.0kbits/s    frame=  169 fps= 15 q=0.0 size=     466kB time=00:00:07.04 bitrate= 542.4kbits/s    frame=  172 fps= 14 q=0.0 size=     466kB time=00:00:07.16 bitrate= 532.9kbits/s    frame=  177 fps= 14 q=0.0 size=     467kB time=00:00:07.37 bitrate= 518.2kbits/s    frame=  182 fps= 14 q=0.0 size=     506kB time=00:00:07.58 bitrate= 546.5kbits/s    frame=  186 fps= 14 q=0.0 size=     506kB time=00:00:07.75 bitrate= 534.7kbits/s    frame=  193 fps= 13 q=0.0 size=     538kB time=00:00:08.04 bitrate= 547.8kbits/s    frame=  200 fps= 13 q=0.0 size=     538kB time=00:00:08.33 bitrate= 528.7kbits/s    frame=  207 fps= 13 q=0.0 size=     572kB time=00:00:08.62 bitrate= 543.6kbits/s    frame=  214 fps= 13 q=0.0 size=     609kB time=00:00:08.91 bitrate= 559.5kbits/s    frame=  221 fps= 13 q=0.0 size=     609kB time=00:00:09.20 bitrate= 541.8kbits/s    frame=  228 fps= 13 q=0.0 size=     643kB time=00:00:09.50 bitrate= 554.7kbits/s    frame=  235 fps= 13 q=0.0 size=     643kB time=00:00:09.79 bitrate= 538.1kbits/s    frame=  242 fps= 13 q=0.0 size=     678kB time=00:00:10.08 bitrate= 551.0kbits/s    frame=  248 fps= 13 q=0.0 size=     683kB time=00:00:10.33 bitrate= 541.5kbits/s    frame=  256 fps= 13 q=0.0 size=     714kB time=00:00:10.66 bitrate= 548.4kbits/s    frame=  262 fps= 13 q=0.0 size=     751kB time=00:00:10.91 bitrate= 563.6kbits/s    frame=  268 fps= 13 q=0.0 size=     751kB time=00:00:11.16 bitrate= 551.0kbits/s    frame=  274 fps= 13 q=0.0 size=     786kB time=00:00:11.41 bitrate= 563.6kbits/s    frame=  281 fps= 12 q=0.0 size=     786kB time=00:00:11.70 bitrate= 549.6kbits/s    frame=  287 fps= 12 q=0.0 size=     841kB time=00:00:11.95 bitrate= 576.0kbits/s    frame=  290 fps= 12 q=0.0 size=     841kB time=00:00:12.08 bitrate= 570.0kbits/s    frame=  294 fps= 12 q=0.0 size=     843kB time=00:00:12.25 bitrate= 563.4kbits/s    frame=  302 fps= 12 q=0.0 size=     871kB time=00:00:12.58 bitrate= 567.2kbits/s    frame=  309 fps= 12 q=0.0 size=     904kB time=00:00:12.87 bitrate= 575.3kbits/s    frame=  315 fps= 12 q=0.0 size=     904kB time=00:00:13.12 bitrate= 564.4kbits/s    frame=  318 fps= 12 q=0.0 size=     905kB time=00:00:13.25 bitrate= 559.3kbits/s    frame=  323 fps= 12 q=0.0 size=     935kB time=00:00:13.45 bitrate= 569.1kbits/s    frame=  329 fps= 12 q=0.0 size=     937kB time=00:00:13.70 bitrate= 560.2kbits/s    frame=  336 fps= 12 q=0.0 size=     967kB time=00:00:14.00 bitrate= 565.6kbits/s    frame=  341 fps= 12 q=0.0 size=     969kB time=00:00:14.20 bitrate= 558.5kbits/s    frame=  346 fps= 12 q=0.0 size=     998kB time=00:00:14.41 bitrate= 567.4kbits/s    frame=  353 fps= 12 q=0.0 size=     998kB time=00:00:14.70 bitrate= 556.1kbits/s    frame=  359 fps= 12 q=0.0 size=    1030kB time=00:00:14.95 bitrate= 564.2kbits/s    frame=  365 fps= 12 q=0.0 size=    1030kB time=00:00:15.20 bitrate= 554.9kbits/s    frame=  369 fps= 11 q=0.0 size=    1066kB time=00:00:15.37 bitrate= 568.1kbits/s    frame=  372 fps= 11 q=0.0 size=    1066kB time=00:00:15.50 bitrate= 563.5kbits/s    frame=  376 fps= 11 q=0.0 size=    1066kB time=00:00:15.66 bitrate= 557.5kbits/s    frame=  380 fps= 11 q=0.0 size=    1184kB time=00:00:15.83 bitrate= 612.6kbits/s    frame=  384 fps= 11 q=0.0 size=    1184kB time=00:00:16.00 bitrate= 606.2kbits/s    frame=  388 fps= 11 q=0.0 size=    1191kB time=00:00:16.16 bitrate= 603.4kbits/s    frame=  394 fps= 11 q=0.0 size=    1251kB time=00:00:16.41 bitrate= 624.0kbits/s    frame=  397 fps= 11 q=0.0 size=    1251kB time=00:00:16.54 bitrate= 619.3kbits/s    frame=  402 fps= 11 q=0.0 size=    1293kB time=00:00:16.75 bitrate= 632.2kbits/s    frame=  407 fps= 11 q=0.0 size=    1293kB time=00:00:16.95 bitrate= 624.5kbits/s    frame=  411 fps= 11 q=0.0 size=    1293kB time=00:00:17.12 bitrate= 618.4kbits/s    frame=  416 fps= 11 q=0.0 size=    1326kB time=00:00:17.33 bitrate= 626.9kbits/s    frame=  418 fps= 11 q=0.0 size=    1326kB time=00:00:17.41 bitrate= 623.9kbits/s    frame=  423 fps= 11 q=0.0 size=    1326kB time=00:00:17.62 bitrate= 616.5kbits/s    frame=  428 fps= 11 q=0.0 size=    1360kB time=00:00:17.83 bitrate= 624.5kbits/s    frame=  432 fps= 10 q=0.0 size=    1360kB time=00:00:18.00 bitrate= 618.7kbits/s    frame=  437 fps= 10 q=0.0 size=    1393kB time=00:00:18.20 bitrate= 626.7kbits/s    frame=  439 fps= 10 q=0.0 size=    1393kB time=00:00:18.29 bitrate= 623.8kbits/s    frame=  444 fps= 10 q=0.0 size=    1393kB time=00:00:18.50 bitrate= 616.8kbits/s    frame=  449 fps= 10 q=0.0 size=    1426kB time=00:00:18.70 bitrate= 624.5kbits/s    frame=  453 fps= 10 q=0.0 size=    1426kB time=00:00:18.87 bitrate= 619.0kbits/s    frame=  458 fps= 10 q=0.0 size=    1426kB time=00:00:19.08 bitrate= 612.3kbits/s    frame=  460 fps= 10 q=0.0 size=    1460kB time=00:00:19.16 bitrate= 624.0kbits/s    frame=  464 fps= 10 q=0.0 size=    1460kB time=00:00:19.33 bitrate= 618.6kbits/s    frame=  470 fps= 10 q=0.0 size=    1462kB time=00:00:19.58 bitrate= 611.8kbits/s    frame=  479 fps= 10 q=0.0 size=    1493kB time=00:00:19.95 bitrate= 612.7kbits/s    frame=  488 fps= 10 q=0.0 size=    1527kB time=00:00:20.33 bitrate= 615.1kbits/s    frame=  497 fps= 10 q=0.0 size=    1559kB time=00:00:20.70 bitrate= 616.9kbits/s    frame=  504 fps= 10 q=0.0 size=    1559kB time=00:00:21.00 bitrate= 608.3kbits/s    frame=  512 fps= 10 q=0.0 size=    1592kB time=00:00:21.33 bitrate= 611.3kbits/s    frame=  520 fps= 10 q=0.0 size=    1623kB time=00:00:21.66 bitrate= 613.6kbits/s    frame=  528 fps= 10 q=0.0 size=    1623kB time=00:00:22.00 bitrate= 604.3kbits/s    frame=  535 fps= 10 q=0.0 size=    1658kB time=00:00:22.29 bitrate= 609.3kbits/s    frame=  542 fps= 11 q=0.0 size=    1693kB time=00:00:22.58 bitrate= 614.0kbits/s    frame=  545 fps= 10 q=0.0 size=    1693kB time=00:00:22.70 bitrate= 610.6kbits/s    frame=  551 fps= 10 q=0.0 size=    1693kB time=00:00:22.95 bitrate= 603.9kbits/s    frame=  557 fps= 10 q=0.0 size=    1733kB time=00:00:23.20 bitrate= 611.9kbits/s    frame=  562 fps= 10 q=0.0 size=    1733kB time=00:00:23.41 bitrate= 606.4kbits/s    frame=  568 fps= 10 q=0.0 size=    1765kB time=00:00:23.66 bitrate= 610.8kbits/s    frame=  572 fps= 10 q=0.0 size=    1765kB time=00:00:23.83 bitrate= 606.6kbits/s    frame=  578 fps= 10 q=0.0 size=    1795kB time=00:00:24.08 bitrate= 610.6kbits/s    frame=  584 fps= 10 q=0.0 size=    1795kB time=00:00:24.33 bitrate= 604.3kbits/s    frame=  587 fps= 10 q=0.0 size=    1809kB time=00:00:24.45 bitrate= 605.7kbits/s    frame=  594 fps= 10 q=0.0 size=    1823kB time=00:00:24.75 bitrate= 603.5kbits/s    frame=  599 fps= 10 q=0.0 size=    1827kB time=00:00:24.95 bitrate= 599.7kbits/s    frame=  606 fps= 10 q=0.0 size=    1853kB time=00:00:25.25 bitrate= 601.3kbits/s    frame=  609 fps= 10 q=0.0 size=    1853kB time=00:00:25.37 bitrate= 598.3kbits/s    frame=  614 fps= 10 q=0.0 size=    1884kB time=00:00:25.58 bitrate= 603.2kbits/s    frame=  620 fps= 10 q=0.0 size=    1884kB time=00:00:25.83 bitrate= 597.3kbits/s    frame=  622 fps= 10 q=0.0 size=    1884kB time=00:00:25.91 bitrate= 595.5kbits/s    frame=  628 fps= 10 q=0.0 size=    1914kB time=00:00:26.16 bitrate= 599.1kbits/s    frame=  632 fps= 10 q=0.0 size=    1914kB time=00:00:26.33 bitrate= 595.3kbits/s    frame=  637 fps= 10 q=0.0 size=    1949kB time=00:00:26.54 bitrate= 601.4kbits/s    frame=  642 fps= 10 q=0.0 size=    1949kB time=00:00:26.75 bitrate= 596.7kbits/s    frame=  648 fps= 10 q=0.0 size=    1988kB time=00:00:27.00 bitrate= 603.3kbits/s    frame=  652 fps= 10 q=0.0 size=    1988kB time=00:00:27.16 bitrate= 599.6kbits/s    frame=  656 fps= 10 q=0.0 size=    1988kB time=00:00:27.33 bitrate= 595.9kbits/s    frame=  657 fps= 10 q=0.0 size=    1989kB time=00:00:27.37 bitrate= 595.1kbits/s    frame=  663 fps= 10 q=0.0 size=    2013kB time=00:00:27.62 bitrate= 597.0kbits/s    frame=  666 fps=9.9 q=0.0 size=    2013kB time=00:00:27.75 bitrate= 594.3kbits/s    frame=  669 fps=9.9 q=0.0 size=    2015kB time=00:00:27.87 bitrate= 592.2kbits/s    frame=  672 fps=9.8 q=0.0 size=    2042kB time=00:00:28.00 bitrate= 597.5kbits/s    frame=  674 fps=9.7 q=0.0 size=    2042kB time=00:00:28.08 bitrate= 595.7kbits/s    frame=  678 fps=9.7 q=0.0 size=    2042kB time=00:00:28.25 bitrate= 592.2kbits/s    frame=  683 fps=9.7 q=0.0 size=    2069kB time=00:00:28.45 bitrate= 595.6kbits/s    frame=  686 fps=9.7 q=0.0 size=    2069kB time=00:00:28.58 bitrate= 593.0kbits/s    frame=  689 fps=9.6 q=0.0 size=    2069kB time=00:00:28.70 bitrate= 590.4kbits/s    frame=  692 fps=9.6 q=0.0 size=    2069kB time=00:00:28.83 bitrate= 587.9kbits/s    frame=  697 fps=9.6 q=0.0 size=    2091kB time=00:00:29.04 bitrate= 590.0kbits/s    frame=  702 fps=9.6 q=0.0 size=    2091kB time=00:00:29.25 bitrate= 585.8kbits/s    frame=  706 fps=9.5 q=0.0 size=    2119kB time=00:00:29.41 bitrate= 590.1kbits/s    frame=  708 fps=9.5 q=0.0 size=    2119kB time=00:00:29.50 bitrate= 588.4kbits/s    frame=  712 fps=9.4 q=0.0 size=    2119kB time=00:00:29.66 bitrate= 585.1kbits/s    frame=  715 fps=9.4 q=0.0 size=    2119kB time=00:00:29.79 bitrate= 582.7kbits/s    frame=  720 fps=9.4 q=0.0 size=    2176kB time=00:00:30.00 bitrate= 594.3kbits/s    frame=  722 fps=9.4 q=0.0 size=    2176kB time=00:00:30.08 bitrate= 592.7kbits/s    frame=  727 fps=9.4 q=0.0 size=    2176kB time=00:00:30.29 bitrate= 588.6kbits/s    frame=  732 fps=9.3 q=0.0 size=    2209kB time=00:00:30.50 bitrate= 593.2kbits/s    frame=  736 fps=9.3 q=0.0 size=    2209kB time=00:00:30.66 bitrate= 590.0kbits/s    frame=  741 fps=9.3 q=0.0 size=    2241kB time=00:00:30.87 bitrate= 594.5kbits/s    frame=  743 fps=9.3 q=0.0 size=    2241kB time=00:00:30.95 bitrate= 592.9kbits/s    frame=  745 fps=9.2 q=0.0 size=    2241kB time=00:00:31.04 bitrate= 591.3kbits/s    frame=  749 fps=9.2 q=0.0 size=    2241kB time=00:00:31.20 bitrate= 588.2kbits/s    frame=  751 fps=9.2 q=0.0 size=    2241kB time=00:00:31.29 bitrate= 586.6kbits/s    frame=  755 fps=9.1 q=0.0 size=    2272kB time=00:00:31.45 bitrate= 591.7kbits/s    frame=  757 fps=9.1 q=0.0 size=    2272kB time=00:00:31.54 bitrate= 590.1kbits/s    frame=  762 fps=9.1 q=0.0 size=    2272kB time=00:00:31.75 bitrate= 586.2kbits/s    frame=  770 fps=9.1 q=0.0 size=    2304kB time=00:00:32.08 bitrate= 588.4kbits/s    frame=  778 fps=9.2 q=0.0 size=    2340kB time=00:00:32.41 bitrate= 591.5kbits/s    frame=  786 fps=9.2 q=0.0 size=    2341kB time=00:00:32.75 bitrate= 585.5kbits/s    frame=  794 fps=9.2 q=0.0 size=    2373kB time=00:00:33.08 bitrate= 587.7kbits/s    frame=  798 fps=9.2 q=0.0 size=    2376kB time=00:00:33.25 bitrate= 585.3kbits/s    frame=  804 fps=9.2 q=0.0 size=    2420kB time=00:00:33.50 bitrate= 591.8kbits/s    frame=  811 fps=9.3 q=0.0 size=    2465kB time=00:00:33.79 bitrate= 597.5kbits/s    frame=  817 fps=9.3 q=0.0 size=    2465kB time=00:00:34.04 bitrate= 593.1kbits/s    frame=  824 fps=9.3 q=0.0 size=    2500kB time=00:00:34.33 bitrate= 596.6kbits/s    frame=  831 fps=9.3 q=0.0 size=    2500kB time=00:00:34.62 bitrate= 591.6kbits/s    frame=  838 fps=9.3 q=0.0 size=    2534kB time=00:00:34.91 bitrate= 594.5kbits/s    frame=  844 fps=9.4 q=0.0 size=    2534kB time=00:00:35.16 bitrate= 590.2kbits/s    frame=  849 fps=9.4 q=0.0 size=    2568kB time=00:00:35.37 bitrate= 594.8kbits/s    frame=  855 fps=9.4 q=0.0 size=    2568kB time=00:00:35.62 bitrate= 590.6kbits/s    frame=  861 fps=9.3 q=0.0 size=    2604kB time=00:00:35.87 bitrate= 594.7kbits/s    frame=  866 fps=9.3 q=0.0 size=    2604kB time=00:00:36.08 bitrate= 591.3kbits/s    frame=  870 fps=9.3 q=0.0 size=    2633kB time=00:00:36.25 bitrate= 595.1kbits/s    frame=  875 fps=9.3 q=0.0 size=    2633kB time=00:00:36.45 bitrate= 591.7kbits/s    frame=  880 fps=9.3 q=0.0 size=    2633kB time=00:00:36.66 bitrate= 588.3kbits/s    frame=  884 fps=9.3 q=0.0 size=    2664kB time=00:00:36.83 bitrate= 592.5kbits/s    frame=  889 fps=9.3 q=0.0 size=    2664kB time=00:00:37.04 bitrate= 589.2kbits/s    frame=  895 fps=9.3 q=0.0 size=    2701kB time=00:00:37.29 bitrate= 593.4kbits/s    frame=  902 fps=9.3 q=0.0 size=    2701kB time=00:00:37.58 bitrate= 588.8kbits/s    frame=  909 fps=9.3 q=0.0 size=    2731kB time=00:00:37.87 bitrate= 590.7kbits/s    frame=  915 fps=9.3 q=0.0 size=    2735kB time=00:00:38.12 bitrate= 587.6kbits/s    frame=  923 fps=9.4 q=0.0 size=    2763kB time=00:00:38.45 bitrate= 588.6kbits/s    frame=  931 fps=9.4 q=0.0 size=    2800kB time=00:00:38.79 bitrate= 591.3kbits/s    frame=  940 fps=9.4 q=0.0 size=    2835kB time=00:00:39.16 bitrate= 593.0kbits/s    frame=  949 fps=9.5 q=0.0 size=    2835kB time=00:00:39.54 bitrate= 587.4kbits/s    frame=  957 fps=9.5 q=0.0 size=    2867kB time=00:00:39.87 bitrate= 589.0kbits/s    frame=  966 fps=9.5 q=0.0 size=    2901kB time=00:00:40.25 bitrate= 590.3kbits/s    frame=  975 fps=9.6 q=0.0 size=    2932kB time=00:00:40.62 bitrate= 591.3kbits/s    frame=  981 fps=9.6 q=0.0 size=    2932kB time=00:00:40.87 bitrate= 587.7kbits/s    frame=  985 fps=9.6 q=0.0 size=    2933kB time=00:00:41.04 bitrate= 585.4kbits/s    frame=  990 fps=9.6 q=0.0 size=    2977kB time=00:00:41.25 bitrate= 591.2kbits/s    frame=  995 fps=9.5 q=0.0 size=    2977kB time=00:00:41.45 bitrate= 588.2kbits/s    frame=  999 fps=9.5 q=0.0 size=    3021kB time=00:00:41.62 bitrate= 594.6kbits/s    frame= 1003 fps=9.5 q=0.0 size=    3021kB time=00:00:41.79 bitrate= 592.2kbits/s    frame= 1008 fps=9.5 q=0.0 size=    3024kB time=00:00:42.00 bitrate= 589.9kbits/s    frame= 1015 fps=9.5 q=0.0 size=    3056kB time=00:00:42.29 bitrate= 591.9kbits/s    frame= 1020 fps=9.5 q=0.0 size=    3056kB time=00:00:42.50 bitrate= 589.0kbits/s    frame= 1027 fps=9.5 q=0.0 size=    3087kB time=00:00:42.79 bitrate= 590.9kbits/s    frame= 1032 fps=9.5 q=0.0 size=    3089kB time=00:00:43.00 bitrate= 588.4kbits/s    frame= 1039 fps=9.6 q=0.0 size=    3121kB time=00:00:43.29 bitrate= 590.6kbits/s    frame= 1043 fps=9.5 q=0.0 size=    3122kB time=00:00:43.45 bitrate= 588.6kbits/s    frame= 1051 fps=9.6 q=0.0 size=    3160kB time=00:00:43.79 bitrate= 591.1kbits/s    frame= 1055 fps=9.6 q=0.0 size=    3160kB time=00:00:43.95 bitrate= 588.9kbits/s    frame= 1061 fps=9.6 q=0.0 size=    3189kB time=00:00:44.20 bitrate= 591.0kbits/s    frame= 1067 fps=9.5 q=0.0 size=    3190kB time=00:00:44.45 bitrate= 587.7kbits/s    frame= 1073 fps=9.5 q=0.0 size=    3218kB time=00:00:44.70 bitrate= 589.7kbits/s    frame= 1076 fps=9.5 q=0.0 size=    3218kB time=00:00:44.83 bitrate= 588.0kbits/s    frame= 1082 fps=9.5 q=0.0 size=    3248kB time=00:00:45.08 bitrate= 590.2kbits/s    frame= 1086 fps=9.5 q=0.0 size=    3248kB time=00:00:45.25 bitrate= 588.0kbits/s    frame= 1089 fps=9.5 q=0.0 size=    3248kB time=00:00:45.37 bitrate= 586.4kbits/s    frame= 1097 fps=9.5 q=0.0 size=    3272kB time=00:00:45.70 bitrate= 586.4kbits/s    frame= 1104 fps=9.5 q=0.0 size=    3298kB time=00:00:46.00 bitrate= 587.4kbits/s    frame= 1111 fps=9.5 q=0.0 size=    3298kB time=00:00:46.29 bitrate= 583.7kbits/s    frame= 1118 fps=9.6 q=0.0 size=    3320kB time=00:00:46.58 bitrate= 583.9kbits/s    frame= 1125 fps=9.6 q=0.0 size=    3320kB time=00:00:46.87 bitrate= 580.3kbits/s    frame= 1132 fps=9.6 q=0.0 size=    3340kB time=00:00:47.16 bitrate= 580.1kbits/s    frame= 1139 fps=9.6 q=0.0 size=    3361kB time=00:00:47.45 bitrate= 580.2kbits/s    frame= 1146 fps=9.6 q=0.0 size=    3361kB time=00:00:47.75 bitrate= 576.6kbits/s    frame= 1156 fps=9.6 q=0.0 size=    3382kB time=00:00:48.16 bitrate= 575.1kbits/s    frame= 1167 fps=9.7 q=0.0 size=    3401kB time=00:00:48.62 bitrate= 572.9kbits/s    frame= 1174 fps=9.5 q=0.0 size=    3420kB time=00:00:48.91 bitrate= 572.7kbits/s    